<?xml version="1.0" standalone="no"?>
<!DOCTYPE svg PUBLIC "-//W3C//DTD SVG 20010904//EN"
 "http://www.w3.org/TR/2001/REC-SVG-20010904/DTD/svg10.dtd">
<svg version="1.0" xmlns="http://www.w3.org/2000/svg"
 width="500.000000pt" height="500.000000pt" viewBox="0 0 500.000000 500.000000"
 preserveAspectRatio="xMidYMid meet">
<metadata>
Created by potrace 1.14, written by Peter Selinger 2001-2017
</metadata>
<g transform="translate(0.000000,500.000000) scale(0.100000,-0.100000)"
fill="#000000" stroke="none">
<path d="M0 2500 l0 -2500 2500 0 2500 0 0 2500 0 2500 -2500 0 -2500 0 0
-2500z m1680 915 c0 -14 331 -1460 335 -1464 3 -2 7 -2 10 0 2 3 62 319 132
702 l128 697 230 0 230 0 144 -683 c80 -375 148 -691 152 -702 6 -17 8 -18 13
-4 4 9 71 339 150 735 l142 719 205 3 c191 2 207 1 223 -16 16 -18 7 -65 -181
-923 l-199 -904 -329 -3 c-181 -1 -332 1 -336 5 -4 5 -54 221 -111 480 -56
260 -105 465 -109 455 -3 -9 -48 -225 -99 -479 l-94 -463 -327 0 c-303 0 -328
1 -333 18 -23 77 -436 1770 -436 1787 0 43 13 45 242 45 120 0 218 -2 218 -5z"/>
</g>
</svg>
